<mxfile host="app.diagrams.net" agent="Mozilla/5.0 (Windows NT 10.0; Win64; x64) AppleWebKit/537.36 (KHTML, like Gecko) Chrome/138.0.0.0 Safari/537.36 Edg/138.0.0.0" version="28.0.4">
  <diagram name="Topologia Base" id="0Ar3Yt8Rytr-ZsfFow6O">
    <mxGraphModel dx="1418" dy="756" grid="1" gridSize="10" guides="1" tooltips="1" connect="1" arrows="1" fold="1" page="1" pageScale="1" pageWidth="827" pageHeight="1169" math="0" shadow="0">
      <root>
        <mxCell id="0" />
        <mxCell id="1" parent="0" />
        <mxCell id="twPrnzx1wudMUvf7t9YJ-1" value="" style="edgeStyle=orthogonalEdgeStyle;rounded=0;orthogonalLoop=1;jettySize=auto;html=1;" edge="1" parent="1" source="twPrnzx1wudMUvf7t9YJ-2" target="twPrnzx1wudMUvf7t9YJ-4">
          <mxGeometry relative="1" as="geometry" />
        </mxCell>
        <mxCell id="twPrnzx1wudMUvf7t9YJ-2" value="" style="image;aspect=fixed;perimeter=ellipsePerimeter;html=1;align=center;shadow=0;dashed=0;spacingTop=3;image=img/lib/active_directory/internet_cloud.svg;" vertex="1" parent="1">
          <mxGeometry x="449.5" y="40" width="110" height="69.3" as="geometry" />
        </mxCell>
        <mxCell id="twPrnzx1wudMUvf7t9YJ-3" value="" style="edgeStyle=orthogonalEdgeStyle;rounded=0;orthogonalLoop=1;jettySize=auto;html=1;entryX=1;entryY=0.5;entryDx=0;entryDy=0;" edge="1" parent="1" source="twPrnzx1wudMUvf7t9YJ-4" target="twPrnzx1wudMUvf7t9YJ-5">
          <mxGeometry relative="1" as="geometry">
            <mxPoint x="690.5" y="269.29999999999995" as="targetPoint" />
          </mxGeometry>
        </mxCell>
        <mxCell id="twPrnzx1wudMUvf7t9YJ-4" value="" style="image;html=1;image=img/lib/clip_art/networking/Wireless_Router_128x128.png" vertex="1" parent="1">
          <mxGeometry x="650.5" y="109.30000000000001" width="80" height="80" as="geometry" />
        </mxCell>
        <mxCell id="twPrnzx1wudMUvf7t9YJ-5" value="" style="image;html=1;image=img/lib/clip_art/networking/Router_Icon_128x128.png" vertex="1" parent="1">
          <mxGeometry x="590" y="210" width="60.5" height="70" as="geometry" />
        </mxCell>
        <mxCell id="twPrnzx1wudMUvf7t9YJ-6" style="edgeStyle=orthogonalEdgeStyle;rounded=0;orthogonalLoop=1;jettySize=auto;html=1;entryX=0;entryY=0.5;entryDx=0;entryDy=0;exitX=0.75;exitY=1;exitDx=0;exitDy=0;" edge="1" parent="1" source="twPrnzx1wudMUvf7t9YJ-8" target="twPrnzx1wudMUvf7t9YJ-5">
          <mxGeometry relative="1" as="geometry" />
        </mxCell>
        <mxCell id="twPrnzx1wudMUvf7t9YJ-7" style="edgeStyle=orthogonalEdgeStyle;rounded=0;orthogonalLoop=1;jettySize=auto;html=1;exitX=1;exitY=0.5;exitDx=0;exitDy=0;entryX=0;entryY=0.25;entryDx=0;entryDy=0;" edge="1" parent="1" source="twPrnzx1wudMUvf7t9YJ-8" target="twPrnzx1wudMUvf7t9YJ-5">
          <mxGeometry relative="1" as="geometry">
            <Array as="points">
              <mxPoint x="370" y="170" />
              <mxPoint x="370" y="228" />
              <mxPoint x="570" y="228" />
            </Array>
          </mxGeometry>
        </mxCell>
        <mxCell id="twPrnzx1wudMUvf7t9YJ-8" value="" style="image;html=1;image=img/lib/clip_art/computers/Server_Tower_128x128.png" vertex="1" parent="1">
          <mxGeometry x="270" y="130" width="79.5" height="80" as="geometry" />
        </mxCell>
        <mxCell id="twPrnzx1wudMUvf7t9YJ-9" style="edgeStyle=orthogonalEdgeStyle;rounded=0;orthogonalLoop=1;jettySize=auto;html=1;entryX=0;entryY=0.75;entryDx=0;entryDy=0;exitX=0.5;exitY=1;exitDx=0;exitDy=0;" edge="1" parent="1" source="twPrnzx1wudMUvf7t9YJ-8" target="twPrnzx1wudMUvf7t9YJ-5">
          <mxGeometry relative="1" as="geometry">
            <mxPoint x="458.5" y="260" as="sourcePoint" />
            <mxPoint x="559.5" y="260" as="targetPoint" />
          </mxGeometry>
        </mxCell>
        <mxCell id="twPrnzx1wudMUvf7t9YJ-10" value="&lt;font style=&quot;color: light-dark(rgb(0, 0, 0), rgb(0, 0, 0));&quot;&gt;Internet&lt;/font&gt;" style="text;strokeColor=none;fillColor=none;html=1;fontSize=24;fontStyle=1;verticalAlign=middle;align=center;" vertex="1" parent="1">
          <mxGeometry x="469.75" y="62.31999999999999" width="69.5" height="24.65" as="geometry" />
        </mxCell>
        <mxCell id="twPrnzx1wudMUvf7t9YJ-11" value="" style="image;sketch=0;aspect=fixed;html=1;points=[];align=center;fontSize=12;image=img/lib/mscae/VM_Linux.svg;" vertex="1" parent="1">
          <mxGeometry x="40" y="154" width="50" height="46" as="geometry" />
        </mxCell>
        <mxCell id="twPrnzx1wudMUvf7t9YJ-12" value="" style="image;sketch=0;aspect=fixed;html=1;points=[];align=center;fontSize=12;image=img/lib/mscae/VM_Linux.svg;" vertex="1" parent="1">
          <mxGeometry x="40" y="217" width="50" height="46" as="geometry" />
        </mxCell>
        <mxCell id="twPrnzx1wudMUvf7t9YJ-13" style="edgeStyle=orthogonalEdgeStyle;rounded=0;orthogonalLoop=1;jettySize=auto;html=1;exitX=0;exitY=0.25;exitDx=0;exitDy=0;entryX=1;entryY=0.391;entryDx=0;entryDy=0;entryPerimeter=0;shape=wire;dashed=1;" edge="1" parent="1" source="twPrnzx1wudMUvf7t9YJ-8" target="twPrnzx1wudMUvf7t9YJ-11">
          <mxGeometry relative="1" as="geometry">
            <Array as="points">
              <mxPoint x="130" y="150" />
              <mxPoint x="130" y="172" />
            </Array>
          </mxGeometry>
        </mxCell>
        <mxCell id="twPrnzx1wudMUvf7t9YJ-14" style="edgeStyle=orthogonalEdgeStyle;rounded=0;orthogonalLoop=1;jettySize=auto;html=1;exitX=0;exitY=0.75;exitDx=0;exitDy=0;entryX=1.06;entryY=0.413;entryDx=0;entryDy=0;entryPerimeter=0;" edge="1" parent="1" source="twPrnzx1wudMUvf7t9YJ-8" target="twPrnzx1wudMUvf7t9YJ-12">
          <mxGeometry relative="1" as="geometry">
            <Array as="points">
              <mxPoint x="130" y="190" />
              <mxPoint x="130" y="236" />
            </Array>
          </mxGeometry>
        </mxCell>
        <UserObject label="Nemesis" placeholders="1" name="Variable" id="twPrnzx1wudMUvf7t9YJ-15">
          <mxCell style="text;html=1;strokeColor=none;fillColor=none;align=center;verticalAlign=middle;whiteSpace=wrap;overflow=hidden;" vertex="1" parent="1">
            <mxGeometry x="260" y="100" width="80" height="20" as="geometry" />
          </mxCell>
        </UserObject>
        <UserObject label="Marvin" placeholders="1" name="Variable" id="twPrnzx1wudMUvf7t9YJ-16">
          <mxCell style="text;html=1;strokeColor=none;fillColor=none;align=center;verticalAlign=middle;whiteSpace=wrap;overflow=hidden;" vertex="1" parent="1">
            <mxGeometry x="580.25" y="197" width="80" height="20" as="geometry" />
          </mxCell>
        </UserObject>
        <UserObject label="Router_Operator" placeholders="1" name="Variable" id="twPrnzx1wudMUvf7t9YJ-17">
          <mxCell style="text;html=1;strokeColor=none;fillColor=none;align=center;verticalAlign=middle;whiteSpace=wrap;overflow=hidden;" vertex="1" parent="1">
            <mxGeometry x="635.75" y="89.30000000000001" width="109.5" height="20" as="geometry" />
          </mxCell>
        </UserObject>
      </root>
    </mxGraphModel>
  </diagram>
</mxfile>
